<?xml version="1.0" standalone="no"?>
<!DOCTYPE svg PUBLIC "-//W3C//DTD SVG 20010904//EN"
 "http://www.w3.org/TR/2001/REC-SVG-20010904/DTD/svg10.dtd">
<svg version="1.0" xmlns="http://www.w3.org/2000/svg"
 width="168.000000pt" height="168.000000pt" viewBox="0 0 168.000000 168.000000"
 preserveAspectRatio="xMidYMid meet">
<metadata>
Created by potrace 1.14, written by Peter Selinger 2001-2017
</metadata>
<g transform="translate(0.000000,168.000000) scale(0.100000,-0.100000)"
fill="#000000" stroke="none">
<path d="M687 1663 c-2 -5 -5 -48 -6 -96 -2 -62 1 -93 11 -104 7 -9 8 -14 2
-10 -16 9 -12 -189 4 -205 9 -9 12 -9 12 0 0 7 -5 12 -11 12 -8 0 -8 4 -2 13
11 15 11 117 -1 136 -6 9 -5 12 2 7 5 -3 12 -1 14 4 2 6 3 -42 3 -107 0 -65
-4 -124 -9 -132 -6 -10 -6 -12 3 -7 8 6 11 -3 9 -28 -1 -20 -7 -36 -13 -36 -5
0 -3 -5 5 -10 12 -8 11 -10 -7 -10 -25 0 -29 10 -13 26 7 7 -5 11 -37 13 -55
3 -66 8 -59 27 4 10 -2 14 -19 14 -18 0 -25 5 -25 20 0 19 -22 26 -70 21 -13
-2 -13 -1 0 8 8 5 18 7 22 5 4 -3 5 3 1 12 -4 11 -8 13 -11 6 -2 -7 -8 -12
-13 -12 -6 0 -7 5 -4 10 4 6 -5 10 -19 10 -21 0 -26 5 -26 25 0 21 -5 25 -30
26 -16 1 -34 2 -40 3 -12 1 -14 15 -4 24 4 4 4 2 1 -4 -3 -6 0 -11 7 -11 7 0
13 6 13 13 0 6 -7 11 -16 9 -9 -1 -20 0 -26 4 -5 3 -17 6 -25 6 -9 0 -14 7
-12 18 2 14 -5 17 -38 17 -33 0 -40 -3 -40 -20 0 -14 -7 -20 -22 -20 -19 0
-20 -2 -8 -10 10 -6 11 -10 3 -10 -8 0 -13 -14 -13 -35 0 -30 -3 -35 -24 -35
-21 0 -25 -5 -24 -29 1 -33 -8 -51 -26 -51 -15 0 -23 -46 -18 -92 3 -26 7 -28
48 -28 40 0 44 -2 44 -25 0 -14 3 -24 8 -24 4 1 21 1 39 0 26 -1 31 -4 26 -17
-5 -15 -3 -15 21 1 23 16 26 16 20 1 -3 -9 -10 -13 -15 -10 -5 3 -9 0 -9 -5 0
-6 16 -11 36 -11 30 0 36 -3 32 -18 -4 -16 2 -19 40 -21 31 -1 51 -9 62 -22
10 -10 29 -19 44 -19 14 0 26 -6 26 -12 0 -9 4 -8 10 2 5 8 10 10 10 5 0 -6
-5 -16 -11 -22 -13 -13 -4 -33 14 -32 9 0 8 2 -1 6 -13 5 -7 23 8 23 6 0 9
-10 8 -23 -2 -18 -9 -22 -35 -24 -18 -1 -40 -9 -49 -18 -9 -8 -20 -12 -26 -9
-7 4 -8 2 -4 -4 4 -6 14 -8 24 -5 12 4 14 3 7 -5 -5 -6 -31 -12 -58 -13 -32
-2 -44 -6 -37 -13 17 -17 11 -29 -7 -15 -11 10 -14 10 -9 2 5 -10 -2 -13 -27
-13 -30 0 -34 -3 -30 -20 6 -22 -22 -29 -30 -7 -4 10 -6 9 -6 0 -1 -7 -10 -13
-21 -13 -14 0 -20 -7 -20 -22 0 -19 -2 -20 -10 -8 -9 13 -10 13 -10 0 0 -13
-1 -13 -10 0 -6 10 -10 11 -10 3 0 -7 -11 -13 -25 -13 -18 0 -25 -5 -25 -20 0
-11 -3 -19 -7 -19 -5 1 -22 1 -38 0 -24 -1 -31 -6 -32 -22 -2 -20 -1 -20 11
-4 10 14 15 15 21 5 5 -9 4 -11 -3 -6 -7 4 -12 3 -12 -3 0 -5 5 -11 11 -13 5
-2 10 -23 11 -46 0 -41 17 -54 26 -21 3 11 1 11 -8 -1 -8 -10 -10 -11 -8 -2 7
25 23 12 25 -19 4 -38 5 -40 32 -42 14 -1 21 -8 21 -21 0 -11 9 -29 20 -41 10
-11 20 -35 22 -53 2 -30 3 -31 25 -17 12 8 29 15 36 15 8 0 21 8 28 17 10 11
10 14 1 9 -6 -4 -12 -2 -12 3 0 6 16 11 36 11 27 0 37 5 41 20 5 18 33 27 66
21 4 -1 3 8 -3 19 -6 12 -7 20 -1 20 5 0 12 -6 14 -12 4 -10 6 -10 6 0 1 6 12
12 26 12 18 0 25 5 25 20 0 13 7 20 20 20 11 0 20 5 20 11 0 5 6 7 13 3 9 -6
8 -3 -1 9 -12 14 -11 16 7 16 12 1 29 1 39 2 10 0 19 7 19 14 0 8 -5 11 -11 8
-6 -4 -5 1 3 10 7 9 24 17 37 17 17 0 24 6 24 20 0 13 7 20 19 20 16 0 19 -9
20 -76 1 -49 -3 -82 -11 -92 -9 -10 -9 -13 -1 -9 8 5 11 -20 10 -97 -1 -58 -5
-99 -8 -93 -3 7 -5 30 -5 52 1 22 -3 43 -8 47 -7 5 -6 8 2 8 7 0 10 5 7 10
-14 23 -20 6 -20 -59 0 -43 4 -67 10 -63 6 3 4 -2 -4 -11 -11 -14 -11 -17 0
-17 9 0 10 -3 4 -8 -13 -8 -13 -22 -1 -41 6 -10 5 -12 -3 -7 -9 6 -11 -8 -10
-53 1 -33 6 -58 10 -55 5 3 6 -2 3 -10 -4 -11 0 -16 11 -16 10 0 13 5 9 12 -5
7 -3 8 7 2 20 -12 51 -12 68 0 11 8 13 8 8 0 -7 -12 50 -13 69 -1 6 3 14 3 18
0 4 -4 33 -7 66 -8 66 0 63 -4 63 72 0 18 4 33 9 33 6 0 4 8 -3 17 -10 11 -10
14 -1 9 7 -4 12 -2 12 4 0 6 5 8 11 4 8 -4 8 0 0 15 -14 25 -23 28 -15 4 5
-15 4 -16 -5 -3 -13 18 -15 43 -3 36 5 -3 9 1 9 9 0 8 -4 12 -8 9 -4 -2 -8 66
-8 152 -1 86 -3 160 -6 164 -3 5 -1 11 4 15 6 3 8 13 5 23 -5 16 -5 16 6 0 6
-11 23 -18 40 -18 25 0 30 -4 30 -25 0 -20 5 -25 24 -25 25 0 51 -22 39 -33
-3 -4 10 -7 30 -7 20 0 37 -5 37 -11 0 -5 -6 -7 -12 -3 -9 5 -9 2 1 -9 7 -9
22 -17 32 -17 12 0 19 -7 19 -19 0 -11 7 -18 18 -18 44 0 62 -4 62 -13 0 -5
-6 -7 -14 -4 -8 3 -17 1 -21 -5 -3 -6 0 -9 8 -5 8 3 18 1 22 -5 3 -6 15 -11
26 -11 10 0 19 -5 19 -11 0 -5 6 -7 13 -3 8 6 8 3 -1 -9 -12 -14 -11 -16 15
-14 20 1 27 -2 25 -12 -3 -12 0 -12 12 -2 8 7 25 11 38 9 17 -2 24 2 26 20 3
19 11 25 32 24 3 0 6 16 8 36 2 35 18 56 34 46 4 -3 8 2 8 12 0 13 -3 14 -14
5 -10 -8 -16 -9 -21 -1 -4 6 -1 9 6 8 7 -2 18 8 25 20 6 13 17 29 24 35 10 9
11 9 5 -3 -5 -10 -5 -12 3 -5 9 9 16 50 13 83 -1 6 -10 12 -21 12 -13 0 -20 7
-20 20 0 17 -7 20 -40 20 -33 0 -40 3 -40 20 0 17 -7 20 -40 20 -32 0 -40 4
-40 18 0 10 -6 19 -12 20 -7 0 -28 2 -46 3 -23 1 -31 6 -30 18 2 12 -7 17 -39
19 -41 3 -49 12 -44 45 0 4 -4 7 -9 7 -6 0 -10 -6 -10 -12 0 -8 -5 -6 -11 4
-5 9 -16 15 -23 12 -18 -7 -56 13 -55 29 0 9 2 9 6 0 2 -7 12 -13 21 -12 10 0
12 3 6 5 -13 5 -6 54 7 54 5 0 6 -8 3 -17 -5 -17 -4 -17 9 0 10 12 29 18 56
19 40 0 53 17 20 26 -11 3 -11 1 1 -8 10 -8 11 -10 2 -8 -19 5 -15 23 5 25 10
0 33 3 52 4 22 2 36 10 39 21 4 17 19 21 74 21 10 0 16 3 13 6 -9 15 13 31 46
35 18 2 35 8 35 15 1 6 2 15 3 20 0 6 18 11 39 13 l37 3 2 58 c1 50 -1 56 -11
41 -10 -13 -15 -14 -21 -4 -5 9 -4 11 3 6 7 -4 12 -2 12 3 0 6 -4 11 -10 11
-5 0 -10 11 -10 24 0 20 -4 23 -22 18 -19 -5 -20 -4 -7 10 7 9 18 13 23 10 5
-3 6 0 2 7 -6 9 -11 9 -22 0 -11 -9 -14 -7 -15 12 -1 13 -1 30 0 37 1 7 -2 12
-6 11 -26 -4 -33 4 -33 40 0 38 0 39 -40 39 -33 1 -40 -3 -40 -19 0 -19 -22
-25 -72 -20 -11 2 -18 -5 -18 -16 0 -14 2 -15 9 -4 5 7 14 10 20 7 18 -11 5
-21 -30 -24 -39 -3 -40 -4 -42 -31 -1 -16 -8 -21 -32 -22 -16 -1 -33 -1 -38 0
-4 0 -6 -2 -6 -6 4 -23 -3 -33 -21 -33 -18 0 -25 -10 -21 -32 1 -7 -57 -13
-81 -9 -5 0 -8 -4 -8 -10 0 -6 7 -9 15 -6 8 4 17 1 21 -5 4 -7 3 -8 -4 -4 -7
4 -12 2 -12 -3 0 -6 -3 -10 -7 -10 -33 5 -53 -3 -53 -21 0 -17 -5 -19 -26 -16
-28 5 -45 16 -26 16 8 0 12 32 12 106 0 58 4 103 8 100 5 -3 9 1 9 9 0 8 -4
12 -9 9 -4 -3 -8 2 -8 11 0 9 4 14 8 11 5 -3 9 1 9 9 0 8 -4 12 -9 9 -4 -3 -8
2 -8 11 0 9 4 14 8 11 5 -3 9 1 9 9 0 8 -4 12 -9 9 -4 -3 -8 2 -8 10 0 10 7
13 21 11 12 -3 18 -1 15 3 -4 4 -12 7 -18 7 -18 0 -19 42 -1 49 13 5 14 4 4
-8 -8 -10 -9 -16 -1 -21 5 -3 10 -5 11 -3 9 39 8 49 -7 46 -11 -2 -18 5 -20
20 -2 12 1 22 7 22 7 0 7 6 -2 17 -10 11 -10 14 -1 9 7 -4 12 -2 12 4 0 6 6 8
13 4 7 -4 9 -3 4 2 -5 5 -13 9 -18 9 -5 0 -9 5 -8 10 0 6 8 8 17 7 11 -3 14 0
7 6 -5 6 -20 12 -33 14 -25 3 -32 20 -10 26 9 2 8 0 -2 -8 -10 -8 -11 -10 -2
-8 8 2 13 8 13 13 -1 13 -32 14 -48 2 -9 -6 -13 -6 -13 2 0 6 -10 9 -22 7 -13
-1 -22 -6 -20 -9 1 -4 2 -10 2 -13 0 -4 8 0 17 7 10 8 14 9 10 2 -5 -8 -1 -11
13 -8 11 2 20 0 20 -4 0 -10 -70 -8 -87 2 -6 4 -14 2 -16 -3 -3 -6 -4 -5 -2 2
1 7 8 12 14 11 6 -2 11 1 11 7 0 11 -28 9 -47 -3 -8 -5 -13 -4 -13 2 0 6 -10
9 -22 7 -13 -1 -22 -6 -20 -9 1 -4 2 -10 2 -13 0 -4 8 0 17 7 10 8 14 9 10 2
-5 -8 -1 -11 13 -8 11 2 20 0 20 -4 0 -10 -70 -8 -87 2 -6 4 -14 2 -16 -3 -3
-6 -4 -5 -2 2 1 7 8 12 14 11 6 -2 11 1 11 7 0 11 -28 9 -47 -3 -8 -5 -13 -4
-13 2 0 13 -17 15 -23 4z m41 -10 c13 10 14 9 3 -11 -7 -13 -14 -22 -15 -20
-1 1 -8 12 -16 23 -11 16 -11 18 0 8 11 -10 17 -10 28 0z m-21 -78 c0 -8 -4
-12 -9 -9 -5 3 -6 10 -3 15 9 13 12 11 12 -6z m0 -60 c0 -8 -4 -12 -9 -9 -5 3
-6 10 -3 15 9 13 12 11 12 -6z m793 -154 c0 -5 -7 -11 -14 -14 -10 -4 -13 -1
-9 9 6 15 23 19 23 5z m-1285 -50 c-3 -6 -11 -11 -16 -11 -5 0 -4 6 3 14 14
16 24 13 13 -3z m195 -25 c0 -3 -4 -8 -10 -11 -5 -3 -10 -1 -10 4 0 6 5 11 10
11 6 0 10 -2 10 -4z m845 -67 c-4 -5 -12 -9 -18 -8 -9 0 -8 2 1 6 6 2 9 10 6
15 -4 7 -2 8 5 4 6 -4 9 -12 6 -17z m359 -147 c3 -5 -1 -9 -9 -9 -8 0 -12 4
-9 9 3 4 7 8 9 8 2 0 6 -4 9 -8z m-77 -41 c0 -11 -7 -17 -14 -14 -9 4 -9 8 0
19 16 17 16 17 14 -5z m-83 -52 c-3 -5 -10 -7 -15 -3 -5 3 -7 10 -3 15 3 5 10
7 15 3 5 -3 7 -10 3 -15z m-1082 -33 c7 4 8 2 4 -5 -9 -13 -26 -5 -25 12 0 9
2 8 6 -1 2 -6 10 -9 15 -6z m995 1 c0 -8 -6 -14 -13 -14 -7 0 -10 6 -7 14 3 7
8 13 12 13 4 0 8 -6 8 -13z m-42 -227 c3 -6 -1 -7 -9 -4 -18 7 -21 14 -7 14 6
0 13 -4 16 -10z m-280 -139 c3 -5 2 -12 -3 -15 -5 -3 -9 1 -9 9 0 17 3 19 12
6z m-545 -137 c0 -8 -19 -13 -24 -6 -3 5 1 9 9 9 8 0 15 -2 15 -3z m1040 -69
c0 -2 -6 -8 -13 -14 -10 -8 -14 -7 -14 2 0 8 6 14 14 14 7 0 13 -1 13 -2z
m-1170 -9 c0 -2 -7 -7 -16 -10 -8 -3 -12 -2 -9 4 6 10 25 14 25 6z"/>
<path d="M1031 1563 c1 -5 0 -10 -1 -13 -1 -3 -3 -13 -5 -24 -3 -14 -1 -16 8
-7 14 14 20 51 7 51 -6 0 -9 -3 -9 -7z"/>
<path d="M607 1157 c-3 -8 1 -14 8 -14 7 0 11 6 8 14 -3 7 -6 13 -8 13 -2 0
-5 -6 -8 -13z"/>
<path d="M53 1116 c0 -8 6 -17 13 -20 7 -3 11 2 10 12 -3 20 -23 27 -23 8z"/>
<path d="M147 1019 c7 -7 15 -10 18 -7 3 3 -2 9 -12 12 -14 6 -15 5 -6 -5z"/>
<path d="M1130 474 c0 -8 5 -12 10 -9 6 4 8 11 5 16 -9 14 -15 11 -15 -7z"/>
<path d="M141 394 c0 -11 3 -14 6 -6 3 7 2 16 -1 19 -3 4 -6 -2 -5 -13z"/>
<path d="M180 351 c0 -5 5 -13 10 -16 6 -3 10 -2 10 4 0 5 -4 13 -10 16 -5 3
-10 2 -10 -4z"/>
<path d="M1460 286 c0 -2 7 -7 16 -10 8 -3 12 -2 9 4 -6 10 -25 14 -25 6z"/>
<path d="M1435 260 c-3 -5 -1 -10 4 -10 6 0 11 5 11 10 0 6 -2 10 -4 10 -3 0
-8 -4 -11 -10z"/>
<path d="M1031 123 c1 -5 1 -10 -1 -13 -8 -24 -7 -60 4 -60 7 0 12 15 12 40 0
22 -3 40 -8 40 -4 0 -7 -3 -7 -7z"/>
<path d="M1028 33 c7 -3 16 -2 19 1 4 3 -2 6 -13 5 -11 0 -14 -3 -6 -6z"/>
</g>
</svg>
